<?xml version="1.0" encoding="UTF-8" standalone="no"?>
<!DOCTYPE svg PUBLIC "-//W3C//DTD SVG 1.1//EN"
 "http://www.w3.org/Graphics/SVG/1.1/DTD/svg11.dtd">
<!-- Generated by graphviz version 2.44.1 (20200629.0846)
 -->
<!-- Pages: 1 -->
<svg width="216pt" height="126pt"
 viewBox="0.00 0.00 216.00 126.28" xmlns="http://www.w3.org/2000/svg" xmlns:xlink="http://www.w3.org/1999/xlink">
<g id="graph0" class="graph" transform="scale(0.83 0.83) rotate(0) translate(4 148)">
<polygon fill="white" stroke="transparent" points="-4,4 -4,-148 256,-148 256,4 -4,4"/>
<!-- B -->
<g id="node1" class="node">
<title>B</title>
<ellipse fill="none" stroke="black" cx="162" cy="-18" rx="18" ry="18"/>
<text text-anchor="middle" x="162" y="-14.3" font-family="Times,serif" font-size="14.00">B</text>
</g>
<!-- A -->
<g id="node2" class="node">
<title>A</title>
<ellipse fill="none" stroke="black" cx="234" cy="-18" rx="18" ry="18"/>
<text text-anchor="middle" x="234" y="-14.3" font-family="Times,serif" font-size="14.00">A</text>
</g>
<!-- B&#45;&gt;A -->
<g id="edge1" class="edge">
<title>B&#45;&gt;A</title>
<path fill="none" stroke="black" d="M180.3,-18C188.02,-18 197.29,-18 205.89,-18"/>
<polygon fill="black" stroke="black" points="205.9,-21.5 215.9,-18 205.9,-14.5 205.9,-21.5"/>
</g>
<!-- F -->
<g id="node3" class="node">
<title>F</title>
<ellipse fill="none" stroke="black" cx="90" cy="-18" rx="18" ry="18"/>
<text text-anchor="middle" x="90" y="-14.3" font-family="Times,serif" font-size="14.00">F</text>
</g>
<!-- F&#45;&gt;B -->
<g id="edge2" class="edge">
<title>F&#45;&gt;B</title>
<path fill="none" stroke="black" d="M108.3,-18C116.02,-18 125.29,-18 133.89,-18"/>
<polygon fill="black" stroke="black" points="133.9,-21.5 143.9,-18 133.9,-14.5 133.9,-21.5"/>
</g>
<!-- G -->
<g id="node4" class="node">
<title>G</title>
<ellipse fill="none" stroke="black" cx="18" cy="-18" rx="18" ry="18"/>
<text text-anchor="middle" x="18" y="-14.3" font-family="Times,serif" font-size="14.00">G</text>
</g>
<!-- G&#45;&gt;F -->
<g id="edge3" class="edge">
<title>G&#45;&gt;F</title>
<path fill="none" stroke="black" d="M36.3,-18C44.02,-18 53.29,-18 61.89,-18"/>
<polygon fill="black" stroke="black" points="61.9,-21.5 71.9,-18 61.9,-14.5 61.9,-21.5"/>
</g>
<!-- C -->
<g id="node5" class="node">
<title>C</title>
<ellipse fill="none" stroke="black" cx="162" cy="-126" rx="18" ry="18"/>
<text text-anchor="middle" x="162" y="-122.3" font-family="Times,serif" font-size="14.00">C</text>
</g>
<!-- C&#45;&gt;A -->
<g id="edge4" class="edge">
<title>C&#45;&gt;A</title>
<path fill="none" stroke="black" d="M172.73,-110.98C184.44,-92.93 204.21,-62.43 217.9,-41.3"/>
<polygon fill="black" stroke="black" points="220.85,-43.18 223.35,-32.89 214.97,-39.38 220.85,-43.18"/>
</g>
<!-- D -->
<g id="node6" class="node">
<title>D</title>
<ellipse fill="none" stroke="black" cx="234" cy="-126" rx="18" ry="18"/>
<text text-anchor="middle" x="234" y="-122.3" font-family="Times,serif" font-size="14.00">D</text>
</g>
<!-- C&#45;&gt;D -->
<g id="edge5" class="edge">
<title>C&#45;&gt;D</title>
<path fill="none" stroke="black" d="M180.3,-126C188.02,-126 197.29,-126 205.89,-126"/>
<polygon fill="black" stroke="black" points="205.9,-129.5 215.9,-126 205.9,-122.5 205.9,-129.5"/>
</g>
<!-- E -->
<g id="node7" class="node">
<title>E</title>
<ellipse fill="none" stroke="black" cx="90" cy="-126" rx="18" ry="18"/>
<text text-anchor="middle" x="90" y="-122.3" font-family="Times,serif" font-size="14.00">E</text>
</g>
<!-- E&#45;&gt;B -->
<g id="edge6" class="edge">
<title>E&#45;&gt;B</title>
<path fill="none" stroke="black" d="M100.73,-110.98C112.44,-92.93 132.21,-62.43 145.9,-41.3"/>
<polygon fill="black" stroke="black" points="148.85,-43.18 151.35,-32.89 142.97,-39.38 148.85,-43.18"/>
</g>
<!-- E&#45;&gt;C -->
<g id="edge7" class="edge">
<title>E&#45;&gt;C</title>
<path fill="none" stroke="black" d="M108.3,-126C116.02,-126 125.29,-126 133.89,-126"/>
<polygon fill="black" stroke="black" points="133.9,-129.5 143.9,-126 133.9,-122.5 133.9,-129.5"/>
</g>
<!-- H -->
<g id="node8" class="node">
<title>H</title>
<ellipse fill="none" stroke="black" cx="18" cy="-126" rx="18" ry="18"/>
<text text-anchor="middle" x="18" y="-122.3" font-family="Times,serif" font-size="14.00">H</text>
</g>
<!-- H&#45;&gt;E -->
<g id="edge8" class="edge">
<title>H&#45;&gt;E</title>
<path fill="none" stroke="black" d="M36.3,-126C44.02,-126 53.29,-126 61.89,-126"/>
<polygon fill="black" stroke="black" points="61.9,-129.5 71.9,-126 61.9,-122.5 61.9,-129.5"/>
</g>
</g>
</svg>
