<?xml version="1.0" encoding="UTF-8" standalone="no"?>
<!DOCTYPE svg PUBLIC "-//W3C//DTD SVG 1.1//EN"
 "http://www.w3.org/Graphics/SVG/1.1/DTD/svg11.dtd">
<!-- Generated by graphviz version 2.44.1 (20200629.0846)
 -->
<!-- Pages: 1 -->
<svg width="360pt" height="165pt"
 viewBox="0.00 0.00 360.00 165.03" xmlns="http://www.w3.org/2000/svg" xmlns:xlink="http://www.w3.org/1999/xlink">
<g id="graph0" class="graph" transform="scale(0.76 0.76) rotate(0) translate(4 214)">
<polygon fill="white" stroke="transparent" points="-4,4 -4,-214 471.54,-214 471.54,4 -4,4"/>
<!-- AB, f(A) -->
<g id="node1" class="node">
<title>AB, f(A)</title>
<ellipse fill="none" stroke="black" cx="151.75" cy="-192" rx="42.79" ry="18"/>
<text text-anchor="middle" x="151.75" y="-188.3" font-family="Times,serif" font-size="14.00">AB, f(A)</text>
</g>
<!-- AB, f(AB) -->
<g id="node2" class="node">
<title>AB, f(AB)</title>
<ellipse fill="none" stroke="black" cx="48.75" cy="-105" rx="48.99" ry="18"/>
<text text-anchor="middle" x="48.75" y="-101.3" font-family="Times,serif" font-size="14.00">AB, f(AB)</text>
</g>
<!-- AB, f(A)&#45;&#45;AB, f(AB) -->
<g id="edge1" class="edge">
<title>AB, f(A)&#45;&#45;AB, f(AB)</title>
<path fill="none" stroke="black" d="M111.14,-185.65C91.85,-181 70.14,-172.29 56.75,-156 49.26,-146.9 47.42,-133.63 47.37,-123.04"/>
<text text-anchor="middle" x="66.25" y="-144.8" font-family="Times,serif" font-size="14.00">AB</text>
</g>
<!-- ABC, f(AC) -->
<g id="node3" class="node">
<title>ABC, f(AC)</title>
<ellipse fill="none" stroke="black" cx="295.75" cy="-105" rx="54.69" ry="18"/>
<text text-anchor="middle" x="295.75" y="-101.3" font-family="Times,serif" font-size="14.00">ABC, f(AC)</text>
</g>
<!-- AB, f(A)&#45;&#45;ABC, f(AC) -->
<g id="edge2" class="edge">
<title>AB, f(A)&#45;&#45;ABC, f(AC)</title>
<path fill="none" stroke="black" d="M175.52,-176.96C201.57,-161.59 243.18,-137.03 269.99,-121.21"/>
<text text-anchor="middle" x="241.25" y="-144.8" font-family="Times,serif" font-size="14.00">AB</text>
</g>
<!-- BCD, f(BCD) -->
<g id="node4" class="node">
<title>BCD, f(BCD)</title>
<ellipse fill="none" stroke="black" cx="169.75" cy="-18" rx="60.39" ry="18"/>
<text text-anchor="middle" x="169.75" y="-14.3" font-family="Times,serif" font-size="14.00">BCD, f(BCD)</text>
</g>
<!-- ABC, f(AC)&#45;&#45;BCD, f(BCD) -->
<g id="edge3" class="edge">
<title>ABC, f(AC)&#45;&#45;BCD, f(BCD)</title>
<path fill="none" stroke="black" d="M272.93,-88.61C250.38,-73.39 216.03,-50.23 193.25,-34.85"/>
<text text-anchor="middle" x="249.25" y="-57.8" font-family="Times,serif" font-size="14.00">BC</text>
</g>
<!-- CE, f(CE) -->
<g id="node5" class="node">
<title>CE, f(CE)</title>
<ellipse fill="none" stroke="black" cx="420.75" cy="-18" rx="46.59" ry="18"/>
<text text-anchor="middle" x="420.75" y="-14.3" font-family="Times,serif" font-size="14.00">CE, f(CE)</text>
</g>
<!-- ABC, f(AC)&#45;&#45;CE, f(CE) -->
<g id="edge4" class="edge">
<title>ABC, f(AC)&#45;&#45;CE, f(CE)</title>
<path fill="none" stroke="black" d="M318.38,-88.61C341.18,-73.11 376.11,-49.35 398.7,-33.99"/>
<text text-anchor="middle" x="369.75" y="-57.8" font-family="Times,serif" font-size="14.00">C</text>
</g>
</g>
</svg>
