<?xml version="1.0" encoding="UTF-8" standalone="no"?>
<!DOCTYPE svg PUBLIC "-//W3C//DTD SVG 1.1//EN"
 "http://www.w3.org/Graphics/SVG/1.1/DTD/svg11.dtd">
<!-- Generated by graphviz version 2.44.1 (20200629.0846)
 -->
<!-- Pages: 1 -->
<svg width="122pt" height="216pt"
 viewBox="0.00 0.00 122.31 216.00" xmlns="http://www.w3.org/2000/svg" xmlns:xlink="http://www.w3.org/1999/xlink">
<g id="graph0" class="graph" transform="scale(0.65 0.65) rotate(0) translate(4 328)">
<polygon fill="white" stroke="transparent" points="-4,4 -4,-328 184,-328 184,4 -4,4"/>
<!-- A -->
<g id="node1" class="node">
<title>A</title>
<ellipse fill="none" stroke="black" cx="90" cy="-306" rx="27" ry="18"/>
<text text-anchor="middle" x="90" y="-302.3" font-family="Times,serif" font-size="14.00">A</text>
</g>
<!-- B -->
<g id="node2" class="node">
<title>B</title>
<ellipse fill="none" stroke="black" cx="27" cy="-234" rx="27" ry="18"/>
<text text-anchor="middle" x="27" y="-230.3" font-family="Times,serif" font-size="14.00">B</text>
</g>
<!-- A&#45;&gt;B -->
<g id="edge1" class="edge">
<title>A&#45;&gt;B</title>
<path fill="none" stroke="black" d="M76.64,-290.15C68.12,-280.69 56.91,-268.24 47.31,-257.56"/>
<polygon fill="black" stroke="black" points="49.63,-254.92 40.34,-249.82 44.43,-259.6 49.63,-254.92"/>
</g>
<!-- C -->
<g id="node3" class="node">
<title>C</title>
<ellipse fill="none" stroke="black" cx="153" cy="-234" rx="27" ry="18"/>
<text text-anchor="middle" x="153" y="-230.3" font-family="Times,serif" font-size="14.00">C</text>
</g>
<!-- A&#45;&gt;C -->
<g id="edge2" class="edge">
<title>A&#45;&gt;C</title>
<path fill="none" stroke="black" d="M103.36,-290.15C111.88,-280.69 123.09,-268.24 132.69,-257.56"/>
<polygon fill="black" stroke="black" points="135.57,-259.6 139.66,-249.82 130.37,-254.92 135.57,-259.6"/>
</g>
<!-- D -->
<g id="node4" class="node">
<title>D</title>
<ellipse fill="none" stroke="black" cx="27" cy="-162" rx="27" ry="18"/>
<text text-anchor="middle" x="27" y="-158.3" font-family="Times,serif" font-size="14.00">D</text>
</g>
<!-- B&#45;&gt;D -->
<g id="edge3" class="edge">
<title>B&#45;&gt;D</title>
<path fill="none" stroke="black" d="M27,-215.7C27,-207.98 27,-198.71 27,-190.11"/>
<polygon fill="black" stroke="black" points="30.5,-190.1 27,-180.1 23.5,-190.1 30.5,-190.1"/>
</g>
<!-- E -->
<g id="node5" class="node">
<title>E</title>
<ellipse fill="none" stroke="black" cx="153" cy="-162" rx="27" ry="18"/>
<text text-anchor="middle" x="153" y="-158.3" font-family="Times,serif" font-size="14.00">E</text>
</g>
<!-- C&#45;&gt;E -->
<g id="edge4" class="edge">
<title>C&#45;&gt;E</title>
<path fill="none" stroke="black" d="M153,-215.7C153,-207.98 153,-198.71 153,-190.11"/>
<polygon fill="black" stroke="black" points="156.5,-190.1 153,-180.1 149.5,-190.1 156.5,-190.1"/>
</g>
<!-- F -->
<g id="node6" class="node">
<title>F</title>
<ellipse fill="none" stroke="black" cx="27" cy="-90" rx="27" ry="18"/>
<text text-anchor="middle" x="27" y="-86.3" font-family="Times,serif" font-size="14.00">F</text>
</g>
<!-- D&#45;&gt;F -->
<g id="edge5" class="edge">
<title>D&#45;&gt;F</title>
<path fill="none" stroke="black" d="M27,-143.7C27,-135.98 27,-126.71 27,-118.11"/>
<polygon fill="black" stroke="black" points="30.5,-118.1 27,-108.1 23.5,-118.1 30.5,-118.1"/>
</g>
<!-- G -->
<g id="node7" class="node">
<title>G</title>
<ellipse fill="none" stroke="black" cx="153" cy="-90" rx="27" ry="18"/>
<text text-anchor="middle" x="153" y="-86.3" font-family="Times,serif" font-size="14.00">G</text>
</g>
<!-- E&#45;&gt;G -->
<g id="edge6" class="edge">
<title>E&#45;&gt;G</title>
<path fill="none" stroke="black" d="M153,-143.7C153,-135.98 153,-126.71 153,-118.11"/>
<polygon fill="black" stroke="black" points="156.5,-118.1 153,-108.1 149.5,-118.1 156.5,-118.1"/>
</g>
<!-- H -->
<g id="node8" class="node">
<title>H</title>
<ellipse fill="none" stroke="black" cx="90" cy="-18" rx="27" ry="18"/>
<text text-anchor="middle" x="90" y="-14.3" font-family="Times,serif" font-size="14.00">H</text>
</g>
<!-- F&#45;&gt;H -->
<g id="edge7" class="edge">
<title>F&#45;&gt;H</title>
<path fill="none" stroke="black" d="M40.36,-74.15C48.88,-64.69 60.09,-52.24 69.69,-41.56"/>
<polygon fill="black" stroke="black" points="72.57,-43.6 76.66,-33.82 67.37,-38.92 72.57,-43.6"/>
</g>
<!-- G&#45;&gt;H -->
<g id="edge8" class="edge">
<title>G&#45;&gt;H</title>
<path fill="none" stroke="black" d="M139.64,-74.15C131.12,-64.69 119.91,-52.24 110.31,-41.56"/>
<polygon fill="black" stroke="black" points="112.63,-38.92 103.34,-33.82 107.43,-43.6 112.63,-38.92"/>
</g>
</g>
</svg>
